<?xml version="1.0" encoding="UTF-8"?>
<!DOCTYPE svg PUBLIC "-//W3C//DTD SVG 1.1//EN" "http://www.w3.org/Graphics/SVG/1.1/DTD/svg11.dtd">
<!-- Creator: CorelDRAW -->
<svg xmlns="http://www.w3.org/2000/svg" xml:space="preserve" width="42.3332mm" height="42.3332mm" style="shape-rendering:geometricPrecision; text-rendering:geometricPrecision; image-rendering:optimizeQuality; fill-rule:evenodd; clip-rule:evenodd"
viewBox="0 0 42.3332 42.3332"
 xmlns:xlink="http://www.w3.org/1999/xlink">
 <defs>
  <style type="text/css">
   <![CDATA[
    .fil0 {fill:none}
    .fil1 {fill:#393185}
    .fil2 {fill:#E5097F}
    .fil3 {fill:#FEFEFE;fill-rule:nonzero}
   ]]>
  </style>
 </defs>
 <g id="Layer_x0020_1">
  <metadata id="CorelCorpID_0Corel-Layer"/>
  <g id="_829459368">
   <rect id="_655355640" class="fil0" width="42.3332" height="42.3332"/>
   <path id="Path" class="fil1" d="M11.9784 36.7862l-9.1874 -25.8611c-1.2307,-3.4649 1.756,-6.9689 5.3697,-6.3026l26.99 4.9778c3.6216,0.6663 5.1581,5.0013 2.775,7.8077l-17.8025 20.8833c-2.3909,2.7986 -6.9141,1.9676 -8.1448,-1.5051z"/>
   <path id="Path_0" class="fil2" d="M8.733 34.9989l-3.9038 -27.1702c-0.5253,-3.6452 3.0964,-6.4829 6.5142,-5.119l25.477 10.2065c3.4179,1.3719 4.0685,5.9264 1.1759,8.1997l-21.581 16.9559c-2.8926,2.2812 -7.1649,0.5645 -7.6823,-3.0729z"/>
   <path id="_829458648" class="fil3" d="M23.9662 14.047l-0.3831 1.9439c0.9542,0.0212 1.4331,0.4008 1.4331,1.1421 0,0.3477 -0.1206,0.6279 -0.3583,0.8478 -0.2376,0.2164 -0.5924,0.3263 -1.0535,0.3263l-0.4895 0 -0.5924 3.0258 1.0819 0c0.447,0 0.7981,0.1135 1.0429,0.3369 0.2447,0.2271 0.3689,0.5002 0.3689,0.8265 0,0.3476 -0.1206,0.6243 -0.3583,0.8372 -0.2376,0.2092 -0.5924,0.3156 -1.0535,0.3156l-1.5501 0 -0.4895 2.3766c-0.0745,0.4044 -0.1596,0.7166 -0.2554,0.9471 -0.0922,0.227 -0.2199,0.4009 -0.3831,0.5179 -0.1631,0.1171 -0.376,0.1774 -0.6385,0.1774 -0.3689,0 -0.6491,-0.0958 -0.8406,-0.2909 -0.1951,-0.1951 -0.2909,-0.4434 -0.2909,-0.7484 0,-0.0674 0.0567,-0.4186 0.1738,-1.0465l0.3866 -1.9332 -2.2772 0 -0.5002 2.3802c-0.0674,0.3582 -0.1348,0.6491 -0.1951,0.869 -0.0638,0.2235 -0.1738,0.4115 -0.3369,0.564 -0.1632,0.1526 -0.4009,0.2271 -0.713,0.2271 -0.3618,0 -0.6385,-0.0923 -0.8372,-0.2803 -0.1986,-0.188 -0.2944,-0.4398 -0.2944,-0.7591 0,-0.1454 0.0071,-0.2873 0.0249,-0.4256 0.0177,-0.1384 0.039,-0.2732 0.0674,-0.4008 0.0283,-0.1277 0.0461,-0.2093 0.0532,-0.2413l0.3831 -1.9544c-0.9897,-0.0213 -1.4863,-0.4044 -1.4863,-1.1529 0,-0.3476 0.1171,-0.6243 0.3547,-0.83 0.2341,-0.2093 0.5853,-0.3121 1.05,-0.3121l0.5285 0 0.6243 -3.0258 -1.1528 0c-0.4647,0 -0.8159,-0.1099 -1.05,-0.3334 -0.2376,-0.2199 -0.3547,-0.5001 -0.3547,-0.8407 0,-0.3405 0.1171,-0.6136 0.3476,-0.8265 0.2341,-0.2092 0.5853,-0.3156 1.0571,-0.3156l1.5997 0 0.486 -2.3908c0.078,-0.3831 0.1454,-0.6775 0.2057,-0.8833 0.0568,-0.2093 0.1703,-0.3902 0.337,-0.5462 0.1667,-0.1561 0.4044,-0.2341 0.7165,-0.2341 0.3477,0 0.6208,0.0957 0.8194,0.2908 0.2022,0.1951 0.3015,0.447 0.3015,0.7591 0,0.2838 -0.0461,0.6385 -0.1454,1.0606l-0.3831 1.9439 2.295 0 0.4895 -2.3908c0.1242,-0.5889 0.2554,-1.0145 0.3902,-1.2735 0.1348,-0.2589 0.4257,-0.3901 0.8691,-0.3901 0.3511,0 0.6278,0.0957 0.83,0.2908 0.2022,0.1951 0.3015,0.447 0.3015,0.7591 0,0.1596 -0.0177,0.337 -0.0568,0.5356 -0.039,0.1987 -0.0709,0.3725 -0.0993,0.525zm-6.0798 7.2859l2.2986 0 0.6101 -3.0258 -2.3163 0 -0.5924 3.0258z"/>
  </g>
 </g>
</svg>
